<?xml version="1.0" standalone="no"?>
<!DOCTYPE svg PUBLIC "-//W3C//DTD SVG 20010904//EN"
 "http://www.w3.org/TR/2001/REC-SVG-20010904/DTD/svg10.dtd">
<svg version="1.0" xmlns="http://www.w3.org/2000/svg"
 width="1920.000000pt" height="1920.000000pt" viewBox="0 0 1920.000000 1920.000000"
 preserveAspectRatio="xMidYMid meet">

<g transform="translate(0.000000,1920.000000) scale(0.100000,-0.100000)"
fill="#000000" stroke="none">
<path d="M9380 16521 c-19 -38 -80 -241 -80 -267 0 -8 6 -11 15 -8 11 5 15 -2
16 -27 0 -19 9 11 19 66 21 119 38 185 48 185 4 0 26 -41 49 -91 25 -53 46
-88 53 -84 15 9 13 28 -15 107 -23 65 -70 158 -80 158 -3 0 -14 -18 -25 -39z"/>
<path d="M11758 16398 c-64 -75 -138 -179 -138 -196 0 -7 6 -12 14 -12 8 0 16
-5 18 -10 2 -6 18 18 37 52 46 86 102 154 111 137 4 -8 15 -53 25 -101 15 -74
19 -85 31 -73 30 30 7 223 -30 254 -11 9 -25 -1 -68 -51z"/>
<path d="M7854 16173 c-36 -33 -99 -111 -137 -170 -26 -41 -27 -43 -6 -43 16
0 19 -4 14 -22 -3 -13 7 2 23 32 39 75 104 162 114 152 5 -5 17 -51 27 -103
11 -52 20 -86 20 -76 1 9 6 17 12 17 18 0 5 149 -17 199 l-19 41 -31 -27z"/>
<path d="M6271 15654 c-34 -36 -73 -83 -86 -104 -13 -21 -29 -41 -35 -45 -17
-11 -11 -25 11 -25 15 0 19 -5 15 -15 -12 -33 5 -12 28 33 32 63 106 156 115
145 5 -4 16 -47 26 -95 15 -78 19 -85 33 -72 12 12 13 30 8 91 -7 74 -31 153
-46 153 -4 0 -35 -30 -69 -66z"/>
<path d="M11650 15437 c0 -7 6 -22 14 -32 13 -18 14 -18 25 3 7 13 9 27 6 32
-9 15 -45 12 -45 -3z"/>
<path d="M13961 15345 c-44 -48 -81 -90 -81 -95 0 -4 6 -10 14 -13 9 -4 25 8
42 31 34 47 86 102 95 102 4 0 13 -45 20 -101 l13 -101 12 48 c22 84 10 201
-22 211 -6 2 -48 -35 -93 -82z"/>
<path d="M9500 15400 c0 -25 45 -28 54 -4 9 23 8 24 -24 24 -23 0 -30 -4 -30
-20z"/>
<path d="M7708 15263 c-19 -24 -48 -71 -48 -79 0 -3 7 -1 15 6 8 7 24 10 35 7
16 -4 25 3 40 33 11 22 20 42 20 45 0 13 -48 3 -62 -12z"/>
<path d="M10255 15180 c10 -11 20 -20 23 -20 3 0 -3 9 -13 20 -10 11 -20 20
-23 20 -3 0 3 -9 13 -20z"/>
<path d="M10340 15108 c41 -45 50 -53 50 -45 0 2 -21 23 -47 47 l-48 45 45
-47z"/>
<path d="M10417 15014 c40 -51 107 -175 127 -234 36 -109 47 -173 53 -291 18
-389 -128 -664 -432 -816 -123 -62 -300 -103 -440 -103 -92 0 -101 -4 -125
-51 -18 -35 -20 -60 -20 -306 0 -302 -8 -371 -52 -460 -61 -124 -170 -197
-293 -197 -121 0 -216 64 -281 188 -16 30 -30 54 -31 52 -5 -5 33 -110 56
-155 33 -65 96 -127 160 -158 51 -26 66 -28 171 -28 103 0 121 3 171 26 72 34
134 99 159 166 18 49 20 79 20 346 0 263 2 296 19 333 32 71 53 81 193 87 396
17 673 225 757 567 62 253 40 545 -57 775 -52 122 -131 256 -169 286 -10 8 -3
-4 14 -27z"/>
<path d="M10370 14906 c44 -90 81 -216 87 -296 2 -30 6 -64 8 -74 11 -52 -35
-349 -52 -332 -3 2 -30 -4 -61 -15 -32 -11 -68 -21 -82 -23 -14 -2 -68 -18
-120 -35 -52 -17 -104 -33 -115 -35 -11 -2 -53 -14 -94 -26 -71 -22 -78 -27
-215 -158 -275 -265 -292 -280 -159 -137 72 77 152 160 177 185 48 46 59 67
29 55 -10 -4 -29 -9 -43 -11 -14 -3 -73 -21 -131 -40 -59 -19 -118 -37 -131
-39 -13 -3 -71 -20 -129 -39 -57 -19 -115 -37 -129 -39 -14 -3 -61 -17 -105
-31 -43 -15 -85 -24 -92 -22 -10 4 -13 -13 -14 -72 -7 -449 34 -780 117 -933
16 -28 50 -71 77 -95 53 -48 49 -56 -14 -24 -179 92 -247 334 -268 955 -4 121
-9 198 -11 170 l-3 -50 -7 45 c-11 74 -11 -205 0 -385 29 -441 67 -605 168
-717 49 -54 102 -78 177 -78 137 0 237 92 280 257 12 44 15 120 15 331 0 302
5 334 56 388 30 33 34 34 110 34 405 0 739 222 814 540 23 102 25 127 5 85
l-15 -30 6 35 c47 260 -11 531 -151 706 -17 21 -13 7 15 -50z"/>
<path d="M8047 14819 c60 -82 87 -133 138 -259 289 -713 366 -918 449 -1190
49 -161 112 -425 130 -550 9 -58 21 -136 27 -175 19 -114 14 -222 -14 -306
-13 -41 -27 -105 -31 -143 -4 -38 -13 -84 -22 -104 -8 -19 -12 -37 -10 -39 10
-10 105 50 148 94 92 95 129 218 108 359 -13 86 -86 390 -119 494 -25 79 -26
101 -6 94 11 -5 15 1 15 22 0 36 -9 51 -35 55 -16 3 -35 47 -97 224 -130 370
-178 490 -343 865 -143 326 -261 523 -354 595 -17 13 -13 4 16 -36z"/>
<path d="M12230 14827 c0 -3 9 -28 19 -55 65 -165 69 -429 10 -605 -25 -75
-82 -189 -103 -206 -9 -8 -33 -15 -54 -16 -111 -8 -348 -18 -356 -16 -11 3
-865 -47 -928 -54 l-48 -6 -1 33 c-1 19 -7 -1 -15 -47 -25 -149 -45 -359 -51
-550 l-6 -191 -33 -38 -32 -37 -8 68 c-7 68 8 428 26 585 5 46 11 114 13 153
8 118 -18 31 -37 -126 -28 -235 -36 -349 -36 -546 l0 -192 -51 -83 c-62 -101
-124 -224 -173 -341 -35 -84 -45 -116 -28 -89 5 7 31 15 59 19 45 5 52 3 55
-13 2 -11 18 35 36 101 17 66 50 168 72 225 39 100 113 230 131 230 4 0 13
-19 19 -42 7 -24 25 -81 40 -128 16 -47 45 -143 64 -214 34 -125 46 -156 46
-123 0 37 20 24 35 -24 l17 -51 77 4 c126 8 219 69 268 175 28 60 35 100 63
358 24 226 34 270 66 312 39 52 52 55 164 43 174 -19 351 10 496 81 114 56
201 131 267 231 55 84 114 230 136 338 20 101 31 282 21 377 -10 111 -50 289
-60 273 -4 -7 -3 -29 3 -49 7 -20 11 -107 11 -201 0 -147 -3 -176 -27 -264
-69 -255 -201 -425 -411 -526 -146 -71 -213 -83 -437 -84 -212 -1 -216 -2
-245 -58 -9 -17 -29 -146 -49 -302 -20 -162 -42 -296 -53 -329 -49 -138 -161
-240 -288 -261 -36 -6 -41 -5 -51 17 -14 31 -9 37 36 37 96 0 214 102 257 222
8 24 31 165 49 313 19 149 39 286 44 305 6 20 29 53 51 75 41 40 42 40 103 35
34 -3 118 -4 187 -4 268 3 487 102 620 279 56 75 88 143 55 115 -20 -17 -20
-16 19 81 95 234 90 510 -11 714 -35 70 -43 84 -43 72z m-1374 -2164 c-7 -7
-26 7 -26 19 0 6 6 6 15 -2 9 -7 13 -15 11 -17z"/>
<path d="M9613 14784 l-33 -16 0 -289 c0 -275 1 -289 19 -299 11 -5 29 -10 40
-10 21 0 21 4 21 209 l0 209 35 22 c47 29 129 37 178 17 47 -20 48 -9 5 58
-48 72 -104 108 -175 112 -40 3 -68 -1 -90 -13z"/>
<path d="M6174 14782 c-13 -8 -64 -81 -64 -91 0 -3 14 -6 32 -5 25 1 37 9 54
35 27 41 29 55 8 63 -19 7 -16 7 -30 -2z"/>
<path d="M11473 14730 c-25 -10 -27 -18 -42 -145 -6 -49 -20 -166 -32 -259
-23 -184 -22 -188 33 -201 26 -7 26 -5 32 47 32 310 38 354 54 366 14 11 13
12 -5 12 -16 0 -23 -7 -26 -27 -2 -16 -2 -1 1 32 2 33 8 65 13 71 5 7 30 17
54 23 47 12 126 1 152 -21 8 -6 16 -8 19 -5 10 10 -61 80 -101 98 -42 20 -115
24 -152 9z m4 -272 c-3 -8 -6 -5 -6 6 -1 11 2 17 5 13 3 -3 4 -12 1 -19z"/>
<path d="M9992 14644 c6 -21 11 -91 11 -154 1 -124 -12 -171 -66 -257 -64
-101 -219 -177 -316 -155 -48 11 -65 7 -41 -9 33 -20 99 -31 168 -27 64 4 79
10 127 43 131 90 191 241 165 417 -11 78 -33 152 -51 172 -5 5 -3 -8 3 -30z"/>
<path d="M13827 14622 c-33 -35 -33 -38 -2 -44 19 -4 30 2 49 27 40 52 0 66
-47 17z"/>
<path d="M6291 14609 l-24 -10 26 -27 c28 -30 97 -166 97 -193 0 -9 14 -63 31
-120 70 -236 188 -750 229 -994 68 -417 85 -781 43 -985 -19 -97 -29 -115 -38
-70 -9 53 -9 86 3 196 26 239 -17 670 -104 1049 -25 110 -66 288 -91 395 -25
107 -61 249 -80 315 -20 66 -42 147 -49 179 -19 79 -56 145 -112 197 -44 42
-43 36 4 -23 46 -57 71 -149 184 -683 40 -189 73 -359 115 -595 l4 -25 -12 26
-12 26 -90 -35 c-49 -18 -135 -52 -190 -74 -55 -22 -106 -40 -113 -41 -17 -1
2 -21 198 -219 90 -93 161 -168 156 -168 -4 0 -93 83 -196 185 -103 102 -193
185 -199 185 -7 0 -37 -11 -69 -24 -70 -30 -142 -50 -162 -47 -8 1 4 -12 28
-29 51 -38 72 -77 100 -185 28 -108 41 -202 51 -382 8 -139 12 -158 39 -218
17 -36 43 -80 57 -99 32 -42 105 -90 162 -107 37 -10 41 -14 32 -30 -28 -54
-172 21 -250 129 -21 31 -39 52 -39 48 0 -24 77 -160 113 -198 l42 -46 63 7
c35 4 65 5 67 2 3 -2 5 -14 5 -25 0 -17 6 -21 29 -21 26 0 31 5 41 40 56 201
162 437 189 420 5 -3 13 -20 16 -38 4 -17 23 -77 41 -132 19 -55 45 -148 58
-205 19 -82 25 -96 26 -65 l1 40 15 -28 15 -28 32 24 c27 21 74 93 89 137 2 8
21 6 68 -10 133 -45 288 -12 380 80 72 72 100 148 122 334 29 236 54 281 186
328 48 18 79 21 197 20 77 0 153 -6 169 -12 42 -16 42 -6 -1 29 -69 57 -133
75 -263 74 -135 -1 -222 -20 -284 -62 -75 -52 -94 -88 -137 -254 -47 -183 -90
-275 -160 -345 -63 -64 -121 -92 -201 -99 l-61 -6 6 48 c4 26 7 54 7 61 0 8
11 14 26 14 22 0 25 2 14 15 -7 8 -18 15 -24 15 -8 0 -11 61 -12 208 -1 116
-9 275 -18 362 -16 142 -26 211 -70 461 -19 112 -118 527 -162 683 -84 296
-166 473 -277 594 -43 46 -41 45 -76 31z"/>
<path d="M11844 14482 c-2 -162 -39 -268 -123 -351 -88 -89 -225 -131 -319
-98 -57 20 -51 0 8 -30 50 -26 155 -31 220 -12 94 28 185 131 222 253 26 82
29 236 6 298 -13 36 -13 33 -14 -60z"/>
<path d="M11740 14558 c0 -9 5 -20 10 -23 13 -8 13 5 0 25 -8 13 -10 13 -10
-2z"/>
<path d="M5023 14410 c41 -42 79 -108 101 -172 19 -57 25 -97 70 -431 23 -173
40 -267 51 -284 15 -22 69 -53 93 -53 8 0 0 74 -33 314 -14 100 -18 112 -50
147 -43 48 -46 63 -5 24 l30 -29 0 25 c0 13 -9 65 -20 114 -28 129 -96 259
-169 328 -33 30 -67 53 -79 53 -20 0 -19 -3 11 -36z"/>
<path d="M4921 14380 c23 -13 75 -97 94 -150 9 -25 34 -162 55 -305 21 -143
43 -283 49 -312 11 -60 51 -125 87 -141 l24 -12 -21 29 c-17 24 -28 74 -55
263 -51 357 -55 379 -72 433 -23 74 -68 141 -117 175 -24 17 -47 30 -52 30 -4
0 -1 -5 8 -10z"/>
<path d="M8280 14086 c0 -3 15 -55 34 -114 45 -139 103 -350 160 -585 l46
-188 -63 -72 c-124 -143 -279 -374 -318 -478 l-17 -45 51 7 c29 3 57 3 63 -2
8 -6 23 20 48 83 61 153 152 329 201 391 25 31 49 57 54 57 4 0 23 -70 42
-155 19 -87 38 -154 44 -152 6 3 10 56 9 138 -1 110 -5 144 -22 193 -27 74
-36 83 -59 65 -16 -13 -17 -12 -5 3 11 14 8 35 -23 140 -114 383 -245 766
-245 714z"/>
<path d="M7761 13838 c12 -29 34 -89 49 -133 15 -44 40 -111 55 -150 35 -91
31 -157 -10 -193 -27 -23 -33 -23 -166 -20 -115 2 -136 1 -125 -10 22 -22 84
-32 207 -32 142 0 151 5 157 86 3 49 -2 75 -33 159 -20 55 -48 133 -61 174
-24 71 -67 155 -85 167 -5 3 0 -19 12 -48z"/>
<path d="M7639 13848 c-23 -43 -89 -302 -89 -350 0 -50 18 -78 50 -78 20 0 27
19 85 224 l36 129 -23 45 c-27 54 -42 62 -59 30z"/>
<path d="M12048 13183 c-24 -27 -108 -185 -157 -298 -48 -108 -121 -332 -121
-371 0 -21 3 -22 28 -14 15 5 40 11 57 13 29 4 29 4 51 126 13 67 34 167 48
222 27 109 82 239 100 239 7 0 22 -26 33 -57 12 -32 45 -114 73 -183 29 -69
65 -159 80 -200 16 -41 29 -69 29 -61 1 11 4 11 16 1 17 -14 7 16 -42 120 -14
30 -38 112 -54 181 -32 146 -70 247 -103 278 -22 20 -23 20 -38 4z"/>
<path d="M5510 13079 c-166 -21 -235 -49 -280 -111 -32 -43 -32 -44 -26 -133
3 -56 2 -85 -3 -76 -8 12 -19 10 -73 -12 -35 -15 -72 -29 -83 -31 -11 -2 -60
-21 -110 -41 -86 -35 -207 -77 -211 -72 -1 1 -6 16 -13 32 -9 23 -10 24 -6 5
36 -176 51 -236 88 -360 55 -179 77 -230 129 -298 29 -37 38 -56 31 -63 -23
-23 -114 71 -160 166 -11 22 -35 86 -54 143 -18 57 -35 99 -37 94 -5 -17 87
-283 114 -330 15 -24 42 -62 61 -83 23 -25 33 -44 29 -56 -5 -16 2 -18 87 -18
l92 0 31 50 c17 28 43 74 57 104 77 152 293 421 330 408 6 -2 19 -35 28 -73 9
-38 31 -116 49 -173 17 -58 42 -157 55 -220 13 -64 24 -110 24 -103 1 15 33
16 49 0 6 -6 -2 27 -18 75 -35 99 -49 193 -50 323 0 105 -18 174 -59 232 -21
29 -35 39 -49 36 -16 -5 -20 6 -36 90 -24 126 -25 191 -5 211 18 19 83 37 267
74 l133 28 -25 30 c-50 60 -82 63 -316 29 -138 -21 -179 -38 -203 -88 -18 -37
-18 -41 11 -255 30 -214 30 -218 11 -237 -10 -11 -20 -18 -23 -15 -5 5 -62
397 -71 484 -7 73 6 101 60 132 58 33 210 57 356 58 119 0 126 1 117 18 -5 10
-20 22 -34 27 -30 12 -172 11 -264 -1z"/>
<path d="M10087 13018 c26 -49 24 -160 -5 -215 -72 -138 -246 -126 -313 21
-19 41 -26 133 -11 152 4 5 -6 -4 -21 -21 -48 -51 -61 -85 -62 -155 0 -53 5
-73 27 -112 35 -59 89 -103 150 -124 54 -18 158 -20 216 -4 64 17 133 71 170
130 35 59 39 91 17 130 -8 14 -14 45 -15 68 0 28 -8 55 -21 73 -20 29 -84 71
-127 84 l-23 7 18 -34z"/>
<path d="M7525 13024 c-207 -45 -307 -155 -370 -404 -33 -132 -92 -247 -153
-300 -24 -22 -52 -40 -61 -40 -12 0 -11 -4 6 -22 22 -21 22 -21 63 -3 92 41
152 141 200 330 37 149 86 251 143 300 55 47 146 90 225 106 74 14 221 7 302
-15 55 -14 55 -14 32 5 -62 50 -257 72 -387 43z"/>
<path d="M13853 12965 c-35 -70 -36 -76 -20 -92 19 -19 18 -20 44 30 l19 38
58 -125 c32 -68 69 -135 82 -147 13 -12 24 -18 24 -13 0 19 -49 192 -70 243
-22 56 -77 141 -92 141 -4 0 -25 -34 -45 -75z"/>
<path d="M13806 12861 c-32 -51 -166 -514 -166 -572 0 -23 -5 -23 88 -2 16 4
22 1 23 -13 1 -11 10 55 20 146 18 149 57 372 73 410 7 16 -29 46 -38 31z"/>
<path d="M8635 12827 c-18 -14 -18 -18 -2 -123 9 -60 19 -120 21 -134 2 -19 4
-17 5 9 1 25 5 32 16 28 8 -4 17 -1 21 5 5 7 2 8 -6 3 -9 -6 -10 0 -5 24 6 31
-10 163 -24 189 -6 10 -11 9 -26 -1z"/>
<path d="M7706 12717 c-96 -125 -62 -280 77 -361 49 -29 141 -47 190 -39 33 5
35 8 56 78 11 40 32 96 45 125 20 44 23 57 13 77 l-11 25 -11 -32 c-15 -46
-69 -98 -112 -109 -71 -19 -151 16 -192 82 -29 48 -46 133 -32 163 15 33 7 30
-23 -9z"/>
<path d="M4691 12684 c0 -11 3 -14 6 -6 3 7 2 16 -1 19 -3 4 -6 -2 -5 -13z"/>
<path d="M14068 12569 c22 -46 47 -109 57 -139 10 -30 20 -48 23 -40 3 8 8 17
13 20 11 7 -84 202 -110 224 -18 16 -15 5 17 -65z"/>
<path d="M8738 12508 c-3 -24 -1 -47 3 -52 5 -6 9 13 9 42 0 63 -6 68 -12 10z"/>
<path d="M4650 12516 c0 -18 32 -147 36 -143 5 4 -25 139 -32 146 -2 2 -4 1
-4 -3z"/>
<path d="M11310 12191 c0 -6 4 -12 9 -15 17 -11 -1 -44 -32 -60 -18 -9 -66
-20 -108 -26 -64 -8 -85 -7 -125 7 -62 21 -83 46 -46 56 13 4 13 5 -4 6 -19 1
-22 -6 -28 -55 -4 -31 -4 -59 -1 -62 2 -3 35 0 72 7 38 7 109 19 158 27 50 8
100 19 112 24 27 11 39 51 23 79 -11 21 -30 29 -30 12z"/>
<path d="M8351 12074 c-26 -22 -61 -71 -61 -87 0 -2 14 -1 31 1 17 3 34 0 38
-6 4 -7 21 12 40 44 18 30 31 57 29 58 -19 18 -49 14 -77 -10z"/>
<path d="M12103 12033 c-14 -5 -45 -70 -57 -117 -7 -27 -6 -27 10 -12 9 10 26
16 38 14 17 -2 25 7 42 52 12 30 20 58 17 63 -5 8 -31 8 -50 0z"/>
<path d="M13588 11968 c5 -89 -15 -144 -69 -193 -45 -40 -45 -54 -2 -37 15 6
45 14 66 18 34 6 38 9 32 28 -3 11 -9 72 -12 134 -3 62 -9 114 -12 116 -3 2
-4 -28 -3 -66z"/>
<path d="M10628 12009 c-19 -10 -68 -88 -68 -106 0 -7 12 -8 34 -3 19 4 37 6
39 4 2 -2 14 19 27 47 20 43 22 52 10 60 -18 11 -21 11 -42 -2z"/>
<path d="M3534 11898 c-100 -105 -210 -262 -278 -396 l-26 -52 45 0 c29 0 45
-4 45 -12 1 -20 17 13 60 119 21 54 57 132 79 173 42 80 104 159 116 148 9 -8
84 -384 85 -421 0 -25 2 -27 14 -14 13 13 13 21 0 63 -9 27 -19 114 -24 194
-8 147 -19 211 -43 243 -12 17 -18 13 -73 -45z"/>
<path d="M13164 11925 c-27 -66 -13 -140 40 -200 l33 -39 -4 59 c-2 33 -13 76
-24 97 -11 20 -20 55 -22 77 -1 23 -3 41 -5 41 -2 0 -10 -16 -18 -35z"/>
<path d="M7665 11920 c3 -5 11 -10 16 -10 6 0 7 5 4 10 -3 6 -11 10 -16 10 -6
0 -7 -4 -4 -10z"/>
<path d="M16025 11920 c3 -5 11 -10 16 -10 6 0 7 5 4 10 -3 6 -11 10 -16 10
-6 0 -7 -4 -4 -10z"/>
<path d="M7615 11912 c-11 -2 -24 -8 -30 -14 -9 -9 43 -1 54 8 8 7 -4 10 -24
6z"/>
<path d="M4830 11876 c0 -2 8 -10 18 -17 15 -13 16 -12 3 4 -13 16 -21 21 -21
13z"/>
<path d="M4872 11826 c7 -8 15 -12 17 -11 5 6 -10 25 -20 25 -5 0 -4 -6 3 -14z"/>
<path d="M15922 11784 c-45 -31 -69 -118 -39 -142 10 -9 17 0 31 41 10 29 27
67 37 85 21 36 9 43 -29 16z"/>
<path d="M13305 11649 c47 -22 67 -23 83 -7 23 23 12 28 -55 27 l-68 -1 40
-19z"/>
<path d="M14152 11565 c2 -5 18 -39 34 -75 53 -112 63 -147 138 -482 40 -181
76 -331 79 -335 4 -3 7 14 7 38 0 24 5 73 10 108 8 57 6 77 -21 175 -75 278
-152 467 -225 551 -14 17 -24 26 -22 20z"/>
<path d="M15766 11498 c-13 -29 -26 -64 -29 -78 -6 -24 -5 -25 38 -22 33 3 45
0 46 -9 1 -15 28 89 28 106 0 6 -13 21 -30 33 l-29 24 -24 -54z"/>
<path d="M16133 11518 c3 -13 9 -41 13 -63 6 -33 8 -36 15 -18 9 24 -9 103
-23 103 -6 0 -8 -10 -5 -22z"/>
<path d="M6492 11458 c-12 -16 -42 -75 -42 -84 0 -3 7 -1 15 6 8 7 23 10 34 7
14 -3 23 6 40 39 l21 44 -29 0 c-16 0 -33 -6 -39 -12z"/>
<path d="M4617 11429 c25 -50 13 -157 -24 -217 -71 -116 -219 -124 -295 -16
-34 47 -49 123 -38 184 l8 44 -43 -45 c-117 -124 -69 -317 100 -401 152 -77
364 -17 435 123 25 49 25 74 -1 111 -26 36 -49 109 -49 155 0 29 -6 37 -47 63
-59 38 -65 38 -46 -1z"/>
<path d="M12874 11353 c32 -95 56 -212 70 -353 l12 -115 19 37 c19 38 18 39
-7 165 -13 71 -42 171 -63 223 -45 115 -64 141 -31 43z"/>
<path d="M14943 11379 c61 -40 113 -113 145 -202 25 -71 26 -80 37 -497 7
-234 13 -426 13 -427 7 -12 47 2 73 25 l31 28 -17 169 c-9 94 -20 262 -25 375
-9 216 -19 269 -67 364 -33 66 -107 143 -165 172 -66 34 -80 30 -25 -7z"/>
<path d="M6890 11376 c0 -2 24 -17 53 -34 232 -131 394 -358 452 -633 19 -87
21 -298 3 -367 -16 -65 -58 -162 -86 -197 -13 -17 -21 -24 -17 -17 8 15 -17
16 -33 0 -7 -7 -12 -9 -12 -5 0 3 -44 -12 -97 -35 -54 -22 -105 -42 -113 -43
-8 -2 -53 -20 -100 -40 -47 -20 -92 -38 -100 -40 -25 -6 -92 -32 -152 -59 -32
-14 -58 -24 -58 -22 0 3 -42 -14 -92 -36 -51 -22 -109 -44 -128 -50 -19 -5
-57 -20 -85 -33 -27 -12 -79 -32 -115 -45 -36 -13 -84 -31 -108 -41 -53 -23
-50 -23 -55 -1 -3 9 -5 1 -6 -18 -1 -54 82 -458 127 -615 55 -189 102 -299
162 -373 28 -34 46 -62 42 -62 -4 0 -28 13 -53 28 -77 50 -137 147 -199 327
-38 112 -121 435 -136 535 -4 25 -9 40 -11 33 -6 -18 53 -307 92 -453 106
-397 210 -550 373 -550 29 0 68 6 87 14 55 23 120 91 149 155 50 113 50 203 0
500 -29 177 -30 205 -4 231 40 40 -13 78 620 -440 129 -106 253 -201 275 -211
161 -75 367 108 377 334 l2 47 19 -37 c24 -46 18 -99 -22 -187 -54 -119 -162
-207 -272 -222 -87 -12 -123 9 -379 216 -129 105 -310 251 -401 325 -92 74
-171 135 -178 135 -17 0 -14 -40 20 -278 29 -197 31 -224 21 -296 -22 -148
-91 -258 -197 -308 -132 -62 -255 -22 -356 116 -32 44 -37 41 -13 -7 80 -158
242 -254 386 -228 128 22 218 84 268 183 41 83 41 114 -5 521 -4 36 -2 47 8
47 17 0 207 -158 432 -360 212 -190 241 -205 380 -205 128 1 191 24 274 101
73 67 112 148 119 246 5 70 10 79 33 52 22 -27 85 -53 157 -65 82 -14 198 -1
268 30 96 43 170 146 194 271 12 66 12 804 0 1035 -5 94 -12 271 -16 395 -7
219 -6 226 15 268 32 63 70 82 164 82 l77 0 0 39 c0 21 3 59 6 85 l7 46 -146
0 -145 0 -30 -34 c-17 -20 -33 -52 -37 -75 -4 -22 -1 -145 5 -273 23 -453 18
-767 -19 -1200 -21 -236 -36 -296 -97 -385 -84 -122 -219 -172 -345 -128 -83
30 -163 112 -206 212 -20 47 -23 51 -19 23 l6 -35 -25 32 c-21 26 -375 319
-577 478 -70 55 -74 111 -13 167 50 45 105 131 132 207 25 68 24 95 -2 40 -17
-38 -15 -22 10 70 35 130 28 353 -16 513 -27 98 -96 239 -152 314 -64 85 -163
175 -244 223 -67 40 -143 75 -143 67z"/>
<path d="M6175 11322 c-95 -51 -239 -156 -205 -150 8 2 19 6 25 11 60 43 155
102 208 128 36 18 64 36 61 41 -8 12 -14 10 -89 -30z"/>
<path d="M7220 11298 c0 -28 69 -153 106 -191 20 -21 54 -50 75 -64 65 -43
118 -206 141 -430 28 -284 -36 -526 -182 -686 -32 -35 -55 -68 -52 -74 4 -5
34 -33 68 -61 l61 -50 174 34 c175 34 199 44 199 84 0 23 -29 60 -46 60 -14 0
-14 -2 0 -16 53 -52 -16 -99 -161 -109 -85 -6 -85 -5 -31 103 79 158 101 288
88 505 -11 175 -52 335 -124 482 l-53 110 190 -3 190 -4 -6 61 c-10 111 -4
109 -239 113 -199 3 -204 4 -260 31 -32 16 -75 48 -98 74 -22 25 -40 39 -40
31z"/>
<path d="M5188 11240 c-26 -27 -48 -53 -48 -57 0 -5 26 -8 58 -7 56 0 60 2
100 46 23 25 42 50 42 57 0 7 -20 11 -52 11 -49 0 -54 -3 -100 -50z"/>
<path d="M14921 11235 c2 -6 16 -33 31 -62 15 -28 32 -73 38 -100 6 -26 15
-228 20 -448 4 -220 11 -408 15 -417 4 -9 13 -19 22 -22 11 -5 13 0 9 22 -3
15 -8 200 -11 412 -7 435 -13 497 -53 554 -25 36 -81 83 -71 61z"/>
<path d="M13062 11120 c0 -14 2 -19 5 -12 2 6 2 18 0 25 -3 6 -5 1 -5 -13z"/>
<path d="M11990 11123 c-83 -32 -98 -81 -104 -358 -3 -150 -13 -280 -35 -454
-24 -188 -28 -248 -19 -258 12 -15 68 -47 72 -41 8 10 56 505 61 623 3 77 8
156 10 175 l5 35 -10 -31 c-6 -18 -17 -34 -25 -38 -13 -4 -15 7 -15 72 1 138
51 203 165 210 53 4 68 0 128 -31 51 -27 64 -31 54 -17 -20 29 -87 80 -132
101 -38 18 -122 24 -155 12z"/>
<path d="M3965 11055 c287 -63 480 -266 566 -593 30 -113 29 -289 -2 -397 -28
-98 -31 -177 -7 -202 10 -9 44 -26 77 -38 l58 -22 1 51 c0 28 8 71 17 96 9 25
27 90 41 145 50 205 23 375 -88 559 -129 213 -335 352 -596 402 -93 18 -148
17 -67 -1z"/>
<path d="M5396 11051 c-3 -5 5 -33 18 -62 24 -53 38 -118 130 -614 116 -622
133 -733 160 -1050 35 -412 40 -537 22 -616 -41 -183 -165 -295 -323 -292 -91
2 -211 73 -197 117 9 30 9 30 46 3 92 -70 180 -84 266 -41 88 44 143 128 163
251 11 73 6 150 -46 623 -23 218 -48 379 -109 720 -93 515 -139 746 -157 792
-21 53 -86 148 -101 148 -12 0 -10 -10 11 -38 45 -65 73 -194 195 -902 26
-146 51 -290 56 -320 15 -84 39 -322 45 -450 3 -63 8 -133 10 -155 4 -29 2
-36 -5 -24 -9 15 -28 7 -162 -61 -136 -69 -154 -81 -158 -106 -5 -22 -9 -10
-19 51 -23 137 -50 226 -106 340 -60 124 -137 218 -229 279 -64 42 -104 59
-70 29 66 -58 154 -213 196 -348 39 -121 51 -199 50 -320 -2 -310 -173 -581
-482 -759 -163 -94 -444 -206 -555 -221 -11 -2 -63 -12 -115 -23 -97 -21 -205
-38 -228 -35 -7 0 -29 3 -50 6 l-37 6 40 -13 c28 -9 40 -19 40 -31 0 -15 16
-23 70 -38 55 -15 106 -20 240 -21 138 -1 177 -5 208 -19 43 -20 83 -14 92 15
7 21 45 39 88 40 15 1 27 5 27 9 0 4 15 11 33 14 17 4 37 11 43 16 6 5 53 23
105 40 91 30 129 46 139 58 6 7 82 48 163 87 88 43 236 210 268 303 6 17 14
31 17 31 4 0 30 -23 59 -52 l53 -52 117 -1 c102 0 125 -3 170 -23 l52 -24 55
25 c116 53 211 189 222 317 4 47 -3 123 -26 270 -17 113 -44 295 -60 405 -25
166 -77 470 -96 564 -5 22 -6 23 -24 6 -25 -23 -26 -8 -1 19 18 21 18 24 -15
181 -18 88 -40 209 -50 270 -16 106 -30 121 -34 40 -2 -39 -32 86 -65 273 -30
169 -30 168 -10 152 8 -7 15 -10 15 -6 0 18 -58 147 -82 184 -27 40 -59 54
-72 33z m-66 -2490 l35 -32 -45 22 c-55 26 -90 57 -90 79 0 31 13 30 39 -3 14
-18 42 -48 61 -66z m-1177 -582 c-3 -11 -18 -26 -32 -32 -14 -6 -37 -19 -50
-29 -30 -23 -41 -15 -41 27 0 31 2 33 48 43 75 15 81 15 75 -9z"/>
<path d="M3428 11030 c-14 -9 -58 -70 -58 -81 0 -2 14 -4 32 -3 26 1 37 9 57
38 21 31 22 39 10 47 -17 11 -20 11 -41 -1z"/>
<path d="M15953 10973 c-27 -39 -49 -92 -32 -75 7 6 21 12 31 12 10 0 18 -6
19 -12 0 -11 49 87 49 98 0 2 -11 4 -24 4 -16 0 -32 -10 -43 -27z"/>
<path d="M6557 10906 c-89 -33 -116 -85 -124 -235 -9 -174 31 -325 102 -391
l28 -25 -8 40 c-10 60 -8 278 5 324 22 83 100 141 190 141 28 0 60 -5 71 -11
20 -10 20 -10 0 28 -52 102 -175 162 -264 129z m8 -146 c-49 -49 -91 -87 -94
-84 -6 6 161 174 174 174 5 0 -31 -40 -80 -90z"/>
<path d="M6866 10833 c131 -269 92 -534 -90 -627 -49 -25 -70 -30 -132 -31
-41 0 -74 -1 -74 -3 0 -1 15 -11 33 -22 41 -26 133 -27 202 -3 69 25 136 93
164 166 28 77 29 222 2 329 -23 87 -78 203 -113 235 -23 21 -22 18 8 -44z"/>
<path d="M5771 10814 c-7 -33 -15 -68 -17 -79 -4 -16 -3 -17 5 -5 9 12 13 13
20 2 11 -18 23 90 13 118 -7 18 -10 12 -21 -36z"/>
<path d="M14274 10815 c16 -81 39 -244 61 -446 27 -246 29 -271 17 -251 -6 9
-80 19 -233 33 -123 10 -233 18 -244 17 -18 -3 -23 11 -52 147 -17 83 -37 170
-43 195 -11 45 -38 96 -46 87 -2 -2 2 -40 10 -83 8 -43 24 -135 36 -204 12
-69 24 -134 26 -145 4 -13 2 -16 -3 -8 -6 9 -13 -2 -21 -33 -7 -25 -23 -56
-37 -70 -28 -28 -79 -31 -189 -10 -57 11 -75 20 -99 46 l-29 33 -129 -129
c-70 -70 -131 -126 -133 -123 -3 3 55 65 129 139 125 125 135 137 135 172 0
35 -2 37 -22 29 -13 -4 -131 1 -276 13 -195 17 -255 25 -262 36 -6 8 -10 13
-10 10 0 -3 -21 -55 -46 -115 -209 -503 -305 -810 -308 -987 0 -64 -4 -93 -11
-87 -19 19 -9 198 18 309 14 58 28 121 32 140 18 94 133 471 199 657 39 106
21 123 -21 21 -101 -244 -216 -624 -259 -853 -18 -101 -14 -212 11 -287 34
-99 116 -158 221 -158 71 0 122 22 185 78 65 58 101 118 165 278 70 175 91
210 151 255 79 60 131 74 258 73 116 -2 209 -21 278 -55 79 -41 164 -139 180
-209 4 -14 18 -102 32 -197 37 -247 77 -345 171 -417 38 -29 129 -65 138 -55
1 2 38 109 80 238 l78 233 -12 582 c-10 491 -15 599 -31 701 -22 130 -85 415
-95 424 -4 3 -4 -7 0 -24z"/>
<path d="M4230 10824 c0 -3 11 -20 24 -37 66 -86 129 -257 146 -391 12 -101 1
-234 -26 -307 -23 -62 -24 -167 -1 -201 32 -47 44 -42 39 15 -2 35 5 84 22
151 49 186 28 378 -62 568 -43 92 -142 232 -142 202z"/>
<path d="M12447 10620 c-10 -279 -41 -461 -98 -572 -21 -41 -37 -52 -89 -63
l-35 -7 35 38 35 38 -36 -31 c-65 -54 -142 -85 -232 -93 -45 -4 -71 -8 -57 -9
21 -1 23 -3 8 -11 -23 -14 -99 4 -154 36 -54 32 -58 17 -14 -44 16 -23 24 -39
16 -36 -11 4 -175 -38 -195 -51 -5 -2 -28 -7 -52 -10 -24 -3 -55 -9 -69 -14
-44 -17 -214 -64 -235 -66 -17 -2 -21 6 -26 54 -4 38 -6 11 -7 -79 -1 -125 6
-215 23 -282 11 -45 -8 -32 -45 28 -39 65 -59 147 -61 254 -2 66 -3 70 -8 30
-6 -38 -8 -41 -13 -20 -4 14 -6 -42 -4 -125 1 -141 3 -154 29 -210 34 -73 56
-97 129 -141 136 -83 360 -143 563 -151 195 -8 326 17 502 94 42 18 43 18 43
70 0 98 93 487 170 708 30 89 45 146 33 130 -9 -13 -84 -36 -133 -42 -19 -2
-38 -9 -42 -16 -12 -19 -10 3 8 79 26 112 34 219 34 424 -1 283 -14 334 -23
90z"/>
<path d="M16246 10775 c4 -11 9 -59 12 -107 7 -142 -16 -205 -177 -468 -172
-280 -336 -490 -888 -1138 l-131 -154 -43 -121 c-23 -67 -60 -174 -82 -237
-47 -133 -87 -184 -169 -220 -194 -83 -432 30 -493 234 -10 35 -16 40 -46 44
-85 9 -186 83 -241 177 -34 59 -27 21 9 -45 37 -68 86 -129 104 -130 9 0 43
-14 77 -31 61 -30 61 -30 64 -77 11 -175 -65 -315 -195 -358 -150 -50 -317 81
-329 258 -2 21 -4 38 -6 38 -2 0 -10 -16 -18 -36 -38 -90 -5 -223 72 -294 169
-156 471 -113 570 81 l24 48 64 -44 c77 -51 159 -84 221 -87 25 -2 45 -7 45
-11 0 -9 -43 -85 -133 -237 -150 -251 -319 -384 -563 -444 -61 -14 -118 -35
-143 -52 -48 -31 -103 -121 -137 -224 -60 -182 -149 -313 -266 -394 -52 -35
-204 -95 -243 -96 -11 0 -71 26 -133 57 -113 57 -114 58 -218 61 -156 6 -184
0 -246 -58 l-53 -48 56 -59 57 -59 30 27 c27 24 41 28 124 34 141 9 223 -5
315 -55 107 -59 122 -62 202 -41 137 36 264 133 340 260 23 38 41 72 41 75 0
4 23 65 52 137 72 182 131 245 247 264 56 9 161 45 227 77 142 69 282 219 408
438 70 123 132 212 289 419 127 166 185 256 174 267 -2 2 -12 -15 -23 -38 -10
-23 -37 -65 -60 -95 -38 -49 -42 -51 -50 -32 -10 21 0 54 83 289 11 30 26 79
33 108 10 42 27 71 79 132 36 43 86 104 111 135 38 48 173 208 419 495 345
404 498 616 546 759 32 94 55 219 55 298 0 78 -24 198 -51 255 -11 24 -17 34
-13 23z"/>
<path d="M16152 10613 c-6 -21 -8 -41 -3 -46 4 -4 11 11 14 35 3 23 5 44 3 45
-1 2 -8 -14 -14 -34z"/>
<path d="M13625 10546 c-33 -49 -136 -321 -137 -362 -2 -47 16 -76 45 -72 28
4 169 330 161 373 -14 83 -40 105 -69 61z"/>
<path d="M16116 10512 c-23 -49 -106 -181 -231 -372 -90 -136 -187 -264 -330
-435 -23 -27 -118 -142 -212 -255 -94 -113 -212 -254 -263 -315 -102 -121 -96
-109 -204 -385 -77 -199 -101 -238 -172 -288 -68 -47 -166 -46 -231 4 -38 29
-41 24 -11 -18 42 -60 147 -84 242 -56 61 19 125 88 160 175 16 40 33 70 37
67 5 -3 6 2 3 10 -3 8 17 66 44 128 27 62 54 129 61 148 6 19 29 54 50 76 21
23 53 62 71 88 18 25 37 43 43 39 6 -3 7 -1 3 5 -3 5 15 32 41 59 27 26 39 41
28 33 -11 -8 -5 3 14 25 19 22 40 40 45 40 6 0 11 7 11 15 0 22 66 101 78 93
6 -3 7 -1 3 5 -3 6 33 59 82 119 217 267 334 429 496 682 79 124 176 304 176
328 0 27 -18 20 -34 -15z"/>
<path d="M5611 10504 c0 -11 3 -14 6 -6 3 7 2 16 -1 19 -3 4 -6 -2 -5 -13z"/>
<path d="M3611 10469 c-72 -36 -116 -93 -126 -163 -8 -51 10 -157 35 -206 28
-56 84 -100 125 -100 l34 0 -15 43 c-8 23 -18 80 -21 127 -5 74 -3 91 15 127
30 58 96 110 165 132 64 19 63 27 -6 56 -61 25 -135 19 -206 -16z"/>
<path d="M14454 9700 c0 -80 2 -112 3 -72 2 39 2 105 0 145 -1 39 -3 7 -3 -73z"/>
<path d="M5931 9784 c0 -11 3 -14 6 -6 3 7 2 16 -1 19 -3 4 -6 -2 -5 -13z"/>
<path d="M5942 9720 c0 -14 2 -19 5 -12 2 6 2 18 0 25 -3 6 -5 1 -5 -13z"/>
<path d="M15639 9693 c-13 -16 -12 -17 4 -4 9 7 17 15 17 17 0 8 -8 3 -21 -13z"/>
<path d="M5952 9655 c-1 -16 3 -48 7 -70 8 -35 9 -36 9 -10 1 17 -3 48 -7 70
-8 35 -9 36 -9 10z"/>
<path d="M4774 9604 c73 -95 140 -276 158 -427 18 -144 0 -267 -59 -390 -26
-54 -53 -103 -62 -110 -12 -10 -13 -9 -1 12 12 23 10 23 -46 -9 -132 -75 -212
-120 -269 -151 -33 -17 -85 -46 -115 -64 -137 -80 -211 -122 -290 -163 -47
-25 -92 -50 -100 -57 -8 -7 -42 -27 -75 -45 -33 -17 -52 -29 -43 -26 9 2 34 7
55 10 21 3 7 -3 -32 -13 l-69 -17 -32 -62 c-24 -48 -28 -61 -15 -58 9 3 51 10
93 16 105 15 207 45 232 69 40 36 90 54 156 56 162 6 464 189 603 365 59 75
124 198 133 250 l5 35 -16 -25 c-9 -14 -14 -17 -11 -7 32 102 35 286 7 414
-35 160 -90 281 -176 386 -57 68 -81 77 -31 11z m-906 -1491 c-10 -2 -26 -2
-35 0 -10 3 -2 5 17 5 19 0 27 -2 18 -5z"/>
<path d="M14461 9399 c0 -85 4 -174 9 -199 5 -27 6 31 3 150 -3 107 -7 197 -9
199 -2 2 -4 -65 -3 -150z"/>
<path d="M13319 9526 c-110 -39 -148 -83 -215 -252 -74 -185 -109 -248 -170
-310 -68 -68 -149 -107 -231 -112 -56 -4 -72 0 -127 27 -82 40 -141 118 -161
211 -4 19 -9 38 -11 42 -3 4 -32 -6 -67 -22 -141 -66 -346 -96 -542 -79 -277
24 -567 137 -642 250 -27 42 -41 52 -23 18 8 -15 8 -29 1 -51 -6 -17 -11 -52
-11 -77 0 -100 -57 -245 -126 -321 -20 -22 -65 -54 -101 -72 -53 -26 -76 -31
-132 -31 -121 0 -250 79 -335 207 -31 46 -35 23 -6 -34 63 -123 128 -192 227
-238 54 -25 67 -27 188 -27 114 0 136 3 180 23 28 13 65 37 82 54 43 41 89
154 108 263 23 131 21 153 -17 194 -24 25 -18 22 17 -10 144 -129 362 -227
605 -271 198 -35 492 -27 619 17 l35 12 49 -59 c65 -79 128 -124 210 -149 138
-43 271 -8 362 94 66 72 87 120 134 300 22 87 47 170 55 186 42 80 126 121
250 121 81 0 238 -30 284 -54 43 -22 40 -5 -5 42 -53 54 -119 90 -199 107 -85
18 -236 19 -285 1z"/>
<path d="M14534 9330 c0 -74 1 -105 3 -67 2 37 2 97 0 135 -2 37 -3 6 -3 -68z"/>
<path d="M9903 9415 c0 -22 2 -30 4 -17 2 12 2 30 0 40 -3 9 -5 -1 -4 -23z"/>
<path d="M4376 9325 c51 -53 79 -103 99 -182 20 -77 19 -128 -5 -204 -26 -85
-67 -139 -148 -192 -85 -56 -159 -81 -244 -81 -38 -1 -68 -4 -68 -7 0 -3 12
-11 26 -18 149 -68 412 51 490 221 25 55 29 74 28 153 -1 103 -22 170 -78 246
-29 39 -116 109 -136 109 -4 0 13 -20 36 -45z"/>
<path d="M9912 9340 c0 -19 2 -27 5 -17 2 9 2 25 0 35 -3 9 -5 1 -5 -18z"/>
<path d="M4014 9317 c-99 -26 -182 -92 -199 -159 -8 -33 11 -152 35 -224 37
-107 100 -174 164 -174 23 0 27 3 21 18 -51 122 -78 245 -64 296 19 68 145
154 259 178 33 6 60 15 60 19 0 4 -20 17 -44 29 -56 26 -163 34 -232 17z"/>
<path d="M9847 9266 c-11 -12 -13 -37 -9 -124 5 -123 -9 -230 -38 -279 -11
-18 -18 -33 -16 -33 2 0 23 9 47 20 24 11 61 20 81 20 50 0 53 15 34 172 -9
69 -16 145 -16 169 0 59 -47 91 -83 55z"/>
<path d="M14467 9125 c-3 -16 -9 -41 -12 -55 -4 -17 -1 -14 10 10 9 19 14 43
13 55 -3 15 -5 13 -11 -10z"/>
<path d="M14543 9105 c0 -22 2 -30 4 -17 2 12 2 30 0 40 -3 9 -5 -1 -4 -23z"/>
<path d="M14407 8935 c-20 -53 -37 -101 -36 -108 0 -7 18 32 40 87 22 54 38
103 37 108 -2 5 -20 -34 -41 -87z"/>
<path d="M5001 8844 c0 -11 3 -14 6 -6 3 7 2 16 -1 19 -3 4 -6 -2 -5 -13z"/>
<path d="M9265 8761 c17 -18 62 -55 102 -82 61 -41 73 -46 83 -34 10 12 9 15
-7 15 -24 0 -127 61 -173 103 l-35 32 30 -34z"/>
<path d="M14351 8759 c-6 -18 -11 -39 -10 -48 0 -9 7 4 14 29 16 51 13 67 -4
19z"/>
<path d="M15206 8659 c-15 -34 -25 -63 -23 -65 2 -2 16 24 30 58 15 34 25 63
23 65 -2 2 -15 -24 -30 -58z"/>
<path d="M14411 8684 c0 -11 3 -14 6 -6 3 7 2 16 -1 19 -3 4 -6 -2 -5 -13z"/>
<path d="M14328 8665 c2 -14 6 -25 8 -25 2 0 4 11 4 25 0 14 -4 25 -9 25 -4 0
-6 -11 -3 -25z"/>
<path d="M14341 8604 c0 -11 3 -14 6 -6 3 7 2 16 -1 19 -3 4 -6 -2 -5 -13z"/>
<path d="M14412 8570 c0 -14 2 -19 5 -12 2 6 2 18 0 25 -3 6 -5 1 -5 -13z"/>
<path d="M15171 8579 c-1 -4 -12 -32 -26 -63 -14 -31 -23 -56 -20 -56 9 0 55
103 51 114 -2 6 -5 8 -5 5z"/>
<path d="M8077 8552 c-22 -24 -22 -65 1 -84 20 -18 324 -148 346 -148 41 0 63
75 29 101 -16 12 -17 12 -7 -1 5 -8 9 -21 8 -27 -1 -7 -2 -17 -3 -23 0 -5 -17
-12 -37 -16 -41 -8 -75 6 -169 66 -60 40 -83 65 -90 102 -4 18 0 20 28 15 31
-6 31 -5 -8 13 -52 24 -78 24 -98 2z"/>
<path d="M12398 8554 c12 -8 22 -24 22 -35 0 -27 -68 -99 -110 -117 -19 -8
-39 -20 -45 -27 -11 -15 -102 -34 -123 -27 -10 3 -9 10 4 30 17 26 17 27 -2
12 -50 -37 -64 -55 -64 -81 0 -33 22 -52 59 -52 21 0 57 23 136 88 146 120
175 149 175 173 0 27 -26 52 -53 52 l-21 0 22 -16z"/>
<path d="M14425 8460 c10 -11 20 -20 23 -20 3 0 -3 9 -13 20 -10 11 -20 20
-23 20 -3 0 3 -9 13 -20z"/>
<path d="M5655 8207 c0 -78 -4 -101 -26 -147 -29 -62 -84 -130 -104 -130 -10
0 -14 -21 -17 -75 -3 -86 -5 -85 76 -55 122 46 203 165 194 284 -7 82 -39 144
-103 198 -20 16 -20 15 -20 -75z"/>
<path d="M3800 8186 c0 -2 11 -6 25 -8 14 -3 25 -1 25 3 0 5 -11 9 -25 9 -14
0 -25 -2 -25 -4z"/>
<path d="M5117 8183 c-12 -11 -8 -41 6 -46 10 -4 12 3 9 24 -5 31 -5 32 -15
22z"/>
<path d="M7192 8074 c-25 -17 -30 -60 -9 -86 14 -19 288 -138 334 -145 19 -3
39 0 48 7 17 14 20 75 5 85 -6 4 -10 -6 -10 -23 0 -66 -90 -56 -206 23 -83 57
-122 126 -66 118 23 -3 21 0 -13 16 -50 24 -55 25 -83 5z"/>
<path d="M3529 8006 c35 -36 55 -44 66 -26 3 5 -18 21 -47 36 l-53 26 34 -36z"/>
<path d="M5150 7917 c0 -44 78 -101 178 -130 l52 -16 0 63 0 62 -31 -2 c-17
-1 -43 -13 -58 -28 l-27 -26 -57 51 c-54 48 -57 49 -57 26z"/>
<path d="M11210 7855 c-11 -13 -5 -15 46 -15 53 0 56 1 38 15 -25 19 -68 19
-84 0z"/>
<path d="M6104 7818 c8 -13 20 -51 27 -85 44 -213 -150 -386 -313 -278 -71 47
-126 166 -116 250 5 41 2 42 -23 13 -47 -55 -63 -101 -64 -178 0 -125 60 -214
185 -274 60 -29 73 -31 170 -31 97 0 110 2 170 31 155 74 229 219 186 366 -20
70 -87 147 -158 182 -67 33 -84 34 -64 4z"/>
<path d="M4086 7758 c-10 -6 -39 -8 -65 -5 -38 5 -49 2 -58 -12 -10 -15 -6
-20 21 -33 33 -16 106 -32 188 -42 45 -5 49 -4 63 24 15 29 15 30 -8 30 -13 0
-46 11 -73 25 -27 14 -49 25 -49 25 0 0 -8 -6 -19 -12z"/>
<path d="M11318 7736 c-4 -19 7 -27 97 -69 103 -47 151 -57 173 -35 15 15 16
65 0 74 -7 4 -8 3 -4 -5 4 -6 1 -23 -8 -36 -19 -29 -62 -28 -127 5 -38 20 -60
35 -115 80 -8 6 -13 2 -16 -14z"/>
<path d="M3940 7671 c0 -6 4 -13 10 -16 6 -3 7 1 4 9 -7 18 -14 21 -14 7z"/>
<path d="M4098 7583 c7 -3 16 -2 19 1 4 3 -2 6 -13 5 -11 0 -14 -3 -6 -6z"/>
<path d="M12181 7564 c46 -53 56 -188 20 -270 -27 -61 -60 -96 -112 -119 l-39
-18 20 -22 c33 -35 23 -39 -15 -6 -24 21 -46 31 -67 31 -40 0 -106 39 -136 79
-27 37 -62 116 -62 140 0 10 -8 25 -19 35 -22 20 -33 10 -56 -54 -63 -180 75
-367 293 -396 65 -8 172 11 234 42 199 101 246 330 99 481 -35 36 -93 70 -151
88 -24 7 -24 7 -9 -11z"/>
<path d="M8997 7486 c57 -42 79 -233 37 -327 -28 -61 -81 -118 -129 -140 -49
-23 -133 -24 -183 -4 -72 31 -148 127 -166 211 -12 53 -9 134 6 152 12 16 11
16 -6 2 -11 -8 -31 -32 -46 -52 -28 -38 -40 -40 -40 -6 0 11 -7 33 -16 50 -17
33 -92 118 -104 118 -4 0 -3 -19 3 -41 7 -30 7 -59 -2 -106 -44 -237 -258
-340 -417 -200 -57 50 -95 125 -103 202 l-6 60 -18 -49 c-87 -248 169 -458
453 -371 52 16 76 30 122 75 l56 55 7 -39 c8 -55 49 -134 93 -179 178 -186
531 -165 687 40 31 40 34 50 34 118 0 43 7 89 16 111 21 51 19 68 -17 136 -48
91 -150 168 -253 192 -29 7 -29 7 -8 -8z"/>
<path d="M11777 7462 c-10 -10 -14 -22 -10 -25 12 -13 21 -7 25 18 6 30 6 30
-15 7z"/>
<path d="M11340 7439 c8 -14 11 -50 8 -98 -15 -264 -266 -392 -436 -223 -19
19 -43 53 -53 76 l-19 41 0 -40 c0 -22 -5 -57 -11 -79 -10 -38 -10 -40 33 -84
24 -25 71 -58 108 -75 57 -27 76 -31 155 -31 82 -1 96 2 159 32 78 37 133 88
165 154 27 57 28 156 2 214 -20 45 -73 109 -103 125 -18 10 -18 9 -8 -12z"/>
<path d="M15235 7325 l-28 -35 -31 23 c-60 45 -60 39 0 -16 73 -67 117 -145
144 -258 35 -147 23 -362 -30 -541 l-21 -68 -39 0 c-143 0 -421 102 -538 197
l-42 34 -122 -115 -123 -116 -45 44 c-52 49 -109 90 -116 83 -3 -2 11 -14 30
-26 86 -54 163 -171 201 -306 25 -91 31 -317 11 -438 -24 -144 -21 -141 -120
-133 -172 14 -354 65 -476 132 -25 14 -36 18 -25 9 93 -77 367 -155 541 -155
l73 0 10 38 c51 198 41 474 -23 633 l-25 62 57 51 c31 28 89 82 129 119 l72
69 33 -25 c51 -39 165 -92 257 -121 98 -31 262 -62 284 -53 38 14 86 250 87
422 0 159 -32 293 -90 375 -16 22 -16 28 -4 45 8 10 14 30 14 44 l0 26 -24
-30 c-34 -42 -41 -27 -9 18 34 48 23 59 -12 12z m-567 -693 c-5 -14 -230 -222
-239 -222 -20 0 -2 20 109 122 107 98 139 123 130 100z"/>
<path d="M14989 7291 c-32 -24 -63 -95 -85 -188 -8 -37 -19 -71 -22 -75 -4 -4
-32 -1 -62 7 -62 17 -202 20 -229 5 -67 -36 -38 -187 57 -292 94 -105 326
-212 528 -243 l41 -6 22 88 c75 310 27 577 -124 684 -56 40 -94 46 -126 20z"/>
<path d="M3902 7044 c-98 -49 -175 -164 -208 -311 -13 -61 -16 -104 -11 -212
4 -75 12 -161 20 -191 l13 -55 49 3 c129 9 309 60 415 120 121 67 191 151 221
263 16 59 1 102 -42 119 -26 11 -130 10 -249 -2 -24 -3 -25 1 -41 92 -27 150
-49 190 -103 190 -17 0 -46 -8 -64 -16z m95 -73 c13 -19 23 -38 23 -44 0 -5
-10 5 -23 24 -52 77 -136 37 -213 -102 -19 -35 -32 -53 -28 -39 19 69 71 141
128 175 53 33 84 29 113 -14z"/>
<path d="M3636 6983 c-3 -4 5 -21 19 -39 34 -44 31 -54 -5 -19 -16 16 -32 26
-36 23 -7 -7 12 -45 34 -71 14 -16 16 -15 34 14 l19 31 -30 33 c-16 18 -32 31
-35 28z"/>
<path d="M3621 6734 c0 -11 3 -14 6 -6 3 7 2 16 -1 19 -3 4 -6 -2 -5 -13z"/>
<path d="M3612 6685 c0 -16 2 -22 5 -12 2 9 2 23 0 30 -3 6 -5 -1 -5 -18z"/>
<path d="M4451 6619 c-24 -83 -86 -166 -170 -230 -119 -92 -327 -165 -523
-184 -95 -9 -102 -3 -121 102 -24 130 -25 131 -26 97 -1 -37 27 -181 40 -206
12 -23 90 -24 212 -3 123 22 208 50 310 102 l87 45 66 -43 c37 -24 72 -49 79
-56 10 -10 14 -9 18 7 4 15 -10 30 -64 66 -37 26 -66 51 -63 55 3 5 36 -14 74
-41 42 -30 70 -44 70 -36 0 7 -12 22 -27 31 -16 10 -43 29 -61 42 l-33 25 39
42 c61 67 121 184 110 218 -2 6 -10 -9 -17 -33z"/>
<path d="M3604 6540 c0 -58 1 -81 3 -52 2 28 2 76 0 105 -2 28 -3 5 -3 -53z"/>
<path d="M12522 6614 c-91 -129 -169 -214 -234 -256 -58 -37 -64 -49 -8 -15
44 26 126 101 159 144 l20 28 1 -133 c0 -131 0 -134 -29 -176 -33 -48 -146
-156 -163 -156 -6 0 -8 -3 -5 -6 17 -17 122 83 195 184 44 63 142 221 142 230
0 3 11 19 24 37 l24 31 -54 56 -54 56 -18 -24z"/>
<path d="M14107 6488 c-29 -29 -53 -97 -70 -199 -14 -84 0 -77 -128 -63 -190
20 -252 -47 -178 -194 77 -155 288 -265 578 -301 47 -6 87 -9 90 -6 12 13 30
170 30 272 2 231 -59 394 -175 474 -63 43 -115 49 -147 17z m173 -63 c13 -14
21 -25 18 -25 -2 0 -15 11 -28 25 -13 14 -21 25 -18 25 2 0 15 -11 28 -25z
m-203 -67 c-3 -8 -6 -5 -6 6 -1 11 2 17 5 13 3 -3 4 -12 1 -19z m-16 -79 c-5
-30 -9 -42 -10 -28 -1 30 10 92 15 86 3 -2 0 -28 -5 -58z m129 -59 c-12 -16
-24 -30 -26 -30 -3 0 4 14 16 30 12 17 24 30 26 30 3 0 -4 -13 -16 -30z m-347
-17 c-7 -2 -19 -2 -25 0 -7 3 -2 5 12 5 14 0 19 -2 13 -5z m72 -3 c-3 -5 -1
-10 5 -10 28 0 -4 -18 -41 -23 -89 -12 -106 -80 -41 -164 37 -46 122 -118 170
-142 12 -6 22 -18 22 -26 0 -7 9 -17 21 -20 11 -4 18 -9 16 -11 -9 -9 -56 19
-50 29 4 6 0 8 -11 4 -11 -5 -15 -3 -10 5 5 8 2 9 -10 5 -11 -5 -15 -3 -10 5
5 8 2 9 -10 5 -9 -4 -14 -3 -11 2 5 10 -28 25 -55 26 -8 0 -15 6 -15 13 0 14
-25 33 -36 26 -4 -2 -12 3 -19 11 -7 8 -9 15 -6 15 4 0 -6 19 -22 43 -32 46
-50 99 -44 134 5 34 49 63 93 63 21 0 41 5 44 10 3 6 11 10 16 10 6 0 7 -4 4
-10z m83 -7 c-10 -2 -26 -2 -35 0 -10 3 -2 5 17 5 19 0 27 -2 18 -5z m-241
-21 c-9 -9 -20 -29 -26 -42 -6 -15 -10 -19 -10 -9 -1 16 35 69 46 69 3 0 -1
-8 -10 -18z m-20 -94 c-3 -8 -6 -5 -6 6 -1 11 2 17 5 13 3 -3 4 -12 1 -19z
m369 -34 c-8 -21 -15 -34 -15 -28 -1 15 20 76 25 71 2 -2 -2 -21 -10 -43z
m-342 -19 l17 -30 -20 24 c-12 13 -21 28 -21 34 0 12 0 11 24 -28z m313 -87
c-3 -8 -6 -5 -6 6 -1 11 2 17 5 13 3 -3 4 -12 1 -19z m-10 -85 c-3 -10 -5 -4
-5 12 0 17 2 24 5 18 2 -7 2 -21 0 -30z"/>
<path d="M4586 6389 c-59 -53 -100 -126 -110 -194 -6 -35 -4 -33 12 15 35 105
77 166 134 196 68 35 120 3 163 -102 14 -33 25 -54 25 -47 0 23 -42 118 -66
151 -21 26 -32 32 -64 32 -32 0 -47 -8 -94 -51z"/>
<path d="M11379 6413 c-13 -16 -12 -17 4 -4 9 7 17 15 17 17 0 8 -8 3 -21 -13z"/>
<path d="M11309 6343 l-24 -28 28 24 c15 14 27 26 27 28 0 8 -8 1 -31 -24z"/>
<path d="M12200 6310 c-8 -5 -10 -10 -5 -10 6 0 17 5 25 10 8 5 11 10 5 10 -5
0 -17 -5 -25 -10z"/>
<path d="M11513 6293 c9 -2 25 -2 35 0 9 3 1 5 -18 5 -19 0 -27 -2 -17 -5z"/>
<path d="M11878 6283 c6 -2 18 -2 25 0 6 3 1 5 -13 5 -14 0 -19 -2 -12 -5z"/>
<path d="M11995 6280 l-70 -6 60 -1 c33 -1 83 2 110 7 47 7 47 7 10 7 -22 0
-71 -3 -110 -7z"/>
<path d="M4816 6205 c4 -22 11 -44 16 -50 10 -11 2 34 -13 70 -6 13 -6 5 -3
-20z"/>
<path d="M11650 6226 c0 -2 8 -10 18 -17 15 -13 16 -12 3 4 -13 16 -21 21 -21
13z"/>
<path d="M4996 6199 c-85 -12 -81 -19 8 -12 141 11 179 -34 141 -165 -30 -100
-182 -232 -343 -296 -78 -31 -93 -46 -22 -21 89 31 212 107 274 169 68 67 106
134 114 201 12 108 -37 142 -172 124z"/>
<path d="M4463 6110 c0 -25 2 -35 4 -22 2 12 2 32 0 45 -2 12 -4 2 -4 -23z"/>
<path d="M3650 6038 c1 -527 180 -1009 546 -1468 104 -130 403 -424 554 -544
766 -609 1839 -1050 3070 -1260 608 -104 1145 -143 1810 -133 659 11 1219 71
1818 196 1053 221 1982 618 2657 1136 120 92 287 238 293 256 2 5 9 9 16 9 15
0 252 252 340 361 179 223 338 510 419 754 45 136 98 368 96 416 -1 20 -2 21
-6 4 -2 -11 -20 -76 -39 -145 -93 -328 -263 -635 -520 -940 -144 -171 -507
-516 -564 -538 -8 -3 -37 -24 -65 -46 -66 -55 -122 -96 -130 -96 -3 0 -57 -33
-118 -73 -223 -146 -532 -313 -797 -430 -916 -404 -1961 -636 -3110 -688 -223
-11 -919 -7 -1040 6 -25 2 -101 9 -170 15 -735 64 -1303 169 -1914 351 -92 28
-183 57 -202 65 -19 8 -37 15 -41 15 -5 1 -12 3 -18 5 -5 2 -41 15 -80 28
-566 195 -1152 500 -1570 814 -320 241 -613 538 -799 809 -250 363 -379 723
-412 1146 -3 42 -10 77 -15 77 -5 0 -9 -46 -9 -102z"/>
<path d="M5228 6063 c-30 -205 -266 -396 -590 -478 -55 -15 -115 -25 -132 -23
-29 3 -33 8 -53 69 -12 36 -31 108 -42 160 -11 52 -20 80 -20 63 -1 -32 47
-234 68 -287 6 -15 18 -30 27 -34 22 -8 221 42 313 78 94 38 215 109 280 166
l50 44 88 -44 c48 -25 105 -52 126 -60 34 -15 37 -15 37 1 0 13 -33 33 -115
71 -63 30 -115 58 -115 62 0 14 3 12 102 -37 118 -58 138 -66 138 -54 0 6 -48
33 -107 61 -60 28 -109 52 -111 54 -2 1 6 18 17 36 25 44 53 142 49 171 -2 15
-6 8 -10 -19z"/>
<path d="M12198 6023 c7 -3 16 -2 19 1 4 3 -2 6 -13 5 -11 0 -14 -3 -6 -6z"/>
<path d="M11978 6013 c7 -3 16 -2 19 1 4 3 -2 6 -13 5 -11 0 -14 -3 -6 -6z"/>
<path d="M12038 6003 c12 -2 30 -2 40 0 9 3 -1 5 -23 4 -22 0 -30 -2 -17 -4z"/>
<path d="M13425 5969 c58 -53 98 -118 127 -204 20 -62 23 -88 22 -225 -1 -140
-4 -166 -31 -270 -35 -130 -58 -189 -76 -196 -20 -7 -194 41 -286 80 -126 53
-219 112 -293 186 -37 37 -71 63 -76 58 -19 -19 -232 -106 -232 -95 0 28 -60
135 -99 177 l-42 45 37 -50 c116 -157 133 -357 52 -603 -37 -110 -115 -270
-140 -286 -21 -13 -59 0 -173 56 -122 61 -212 124 -300 213 -44 44 -65 61 -47
38 82 -105 217 -204 387 -284 143 -68 148 -67 206 44 86 164 138 352 139 503
l0 70 63 27 c34 14 94 40 134 58 l72 32 41 -37 c59 -53 162 -117 255 -159 98
-43 246 -87 296 -87 36 0 38 2 59 58 47 124 72 243 77 377 3 72 1 154 -5 183
l-10 54 97 63 c52 35 100 61 106 57 5 -3 4 2 -4 11 -19 24 -29 22 -96 -24 -79
-53 -115 -72 -115 -60 0 5 26 25 58 45 31 19 71 47 87 60 52 44 10 28 -66 -24
-40 -27 -77 -50 -83 -50 -6 0 -22 21 -36 47 -24 46 -123 153 -141 153 -5 0 11
-18 36 -41z m-599 -604 c-30 -23 -228 -106 -235 -99 -3 4 -1 8 4 11 6 2 57 25
115 52 106 50 154 64 116 36z"/>
<path d="M4383 5940 c0 -30 2 -43 4 -27 2 15 2 39 0 55 -2 15 -4 2 -4 -28z"/>
<path d="M4463 5945 c0 -27 2 -38 4 -22 2 15 2 37 0 50 -2 12 -4 0 -4 -28z"/>
<path d="M9173 5973 c9 -2 23 -2 30 0 6 3 -1 5 -18 5 -16 0 -22 -2 -12 -5z"/>
<path d="M13278 5963 c-32 -8 -19 -23 19 -23 47 0 91 -30 133 -92 27 -39 31
-50 20 -63 -11 -13 -7 -19 12 -16 3 0 12 -14 18 -32 7 -18 14 -27 16 -21 10
24 -39 125 -84 175 -37 42 -99 84 -114 78 -2 -1 -11 -3 -20 -6z"/>
<path d="M5574 5941 c-46 -28 -114 -126 -114 -163 0 -7 9 6 19 29 39 85 90
133 142 133 21 0 89 -62 117 -105 7 -11 3 -2 -7 21 -22 46 -83 104 -109 104
-9 0 -31 -9 -48 -19z"/>
<path d="M13226 5918 c-24 -37 -64 -133 -71 -171 -11 -56 -24 -61 -97 -36 -40
14 -89 22 -135 23 -63 1 -75 -2 -95 -22 -19 -19 -23 -33 -22 -81 3 -176 186
-343 479 -439 155 -51 139 -54 170 38 38 113 54 218 54 340 l0 105 -48 42 -48
42 -40 -29 c-98 -72 -200 -240 -228 -375 -8 -38 -14 -70 -12 -71 1 -2 27 -14
57 -28 30 -14 50 -26 44 -26 -25 0 -183 81 -240 123 -33 24 -77 65 -98 90 -62
76 -93 186 -66 236 25 47 123 52 249 11 35 -11 65 -19 66 -18 1 2 7 23 14 48
25 85 53 150 77 179 14 17 20 32 15 36 -6 3 -17 -5 -25 -17z m261 -280 c-3 -8
-6 -5 -6 6 -1 11 2 17 5 13 3 -3 4 -12 1 -19z m0 -150 c-3 -7 -5 -2 -5 12 0
14 2 19 5 13 2 -7 2 -19 0 -25z m-10 -105 c-3 -10 -5 -4 -5 12 0 17 2 24 5 18
2 -7 2 -21 0 -30z m-12 -63 c-9 -41 -17 -33 -9 9 4 17 9 30 11 27 3 -2 2 -19
-2 -36z m-25 -85 c-16 -47 -23 -40 -8 8 6 20 13 35 16 33 2 -3 -1 -21 -8 -41z
m-30 -55 c18 -12 2 -12 -25 0 -13 6 -15 9 -5 9 8 0 22 -4 30 -9z"/>
<path d="M4472 5865 c0 -16 2 -22 5 -12 2 9 2 23 0 30 -3 6 -5 -1 -5 -18z"/>
<path d="M4487 5790 c3 -25 13 -70 22 -100 16 -52 19 -55 46 -52 15 2 38 8 49
12 14 6 4 7 -26 3 l-47 -6 -12 44 c-6 24 -18 67 -25 94 l-13 50 6 -45z"/>
<path d="M6045 5761 c42 -5 53 -11 72 -40 19 -28 23 -30 23 -13 0 34 -46 62
-99 60 l-46 -1 50 -6z"/>
<path d="M5451 5744 c0 -11 3 -14 6 -6 3 7 2 16 -1 19 -3 4 -6 -2 -5 -13z"/>
<path d="M5780 5734 c0 -6 7 -19 15 -30 8 -10 14 -14 14 -9 0 6 -6 19 -14 29
-8 11 -15 15 -15 10z"/>
<path d="M6210 5672 c0 -64 -25 -157 -57 -212 -58 -100 -199 -224 -343 -302
-87 -48 -249 -110 -267 -104 -18 7 -85 149 -113 241 -33 108 -38 121 -39 105
-2 -27 59 -201 99 -287 43 -93 45 -94 132 -64 184 63 382 190 480 308 l26 32
147 -49 146 -49 -3 36 -3 35 -117 42 c-64 22 -119 44 -122 47 -4 3 3 28 15 54
21 46 40 215 25 215 -3 0 -6 -22 -6 -48z m97 -290 c57 -21 103 -41 103 -45 0
-10 -8 -7 -147 40 -57 20 -103 40 -103 45 0 11 12 8 147 -40z"/>
<path d="M5442 5680 c0 -19 2 -27 5 -17 2 9 2 25 0 35 -3 9 -5 1 -5 -18z"/>
<path d="M4638 5663 c7 -3 16 -2 19 1 4 3 -2 6 -13 5 -11 0 -14 -3 -6 -6z"/>
<path d="M10348 5633 c7 -3 16 -2 19 1 4 3 -2 6 -13 5 -11 0 -14 -3 -6 -6z"/>
<path d="M10188 5623 c12 -2 30 -2 40 0 9 3 -1 5 -23 4 -22 0 -30 -2 -17 -4z"/>
<path d="M5443 5585 c0 -22 2 -30 4 -17 2 12 2 30 0 40 -3 9 -5 -1 -4 -23z"/>
<path d="M6132 5600 c0 -14 2 -19 5 -12 2 6 2 18 0 25 -3 6 -5 1 -5 -13z"/>
<path d="M6583 5566 c-16 -13 -42 -48 -58 -77 -25 -47 -29 -66 -33 -162 -3
-60 -1 -112 4 -117 5 -5 8 26 6 75 -5 105 15 176 63 233 31 35 42 42 74 42 31
0 44 -8 83 -47 25 -27 61 -75 79 -108 18 -33 34 -62 36 -64 2 -3 40 14 86 37
134 68 211 72 242 12 19 -37 19 -120 1 -165 -14 -33 -16 -34 -43 -23 -15 6
-80 12 -143 12 -102 1 -125 -2 -200 -28 -47 -16 -104 -41 -127 -55 l-43 -27
113 -112 c62 -62 116 -109 121 -105 4 4 4 0 0 -10 -9 -24 1 -21 50 12 110 76
215 187 259 273 51 101 54 232 7 270 -13 10 -39 18 -61 18 -44 0 -156 -39
-199 -70 -15 -11 -35 -20 -43 -20 -9 0 -30 26 -48 58 -63 111 -125 172 -178
172 -11 0 -32 -11 -48 -24z m477 -499 l-44 -42 40 46 c21 25 41 44 44 42 2 -2
-16 -23 -40 -46z m-40 -51 c0 -2 -8 -10 -17 -17 -16 -13 -17 -12 -4 4 13 16
21 21 21 13z m-56 -47 c-10 -12 -32 -30 -49 -41 -17 -12 -11 -4 15 20 49 45
64 54 34 21z"/>
<path d="M6113 5543 c-3 -10 -8 -22 -11 -27 -3 -5 0 -6 5 -3 11 7 25 47 17 47
-3 0 -7 -8 -11 -17z"/>
<path d="M5372 5500 c0 -14 4 -38 8 -55 7 -27 8 -27 8 -5 0 14 -4 39 -8 55 -7
27 -8 27 -8 5z"/>
<path d="M5451 5494 c0 -11 3 -14 6 -6 3 7 2 16 -1 19 -3 4 -6 -2 -5 -13z"/>
<path d="M12295 5462 c-11 -9 -29 -28 -40 -42 -13 -17 -7 -14 17 8 51 48 95
48 144 1 32 -29 34 -30 20 -7 -36 56 -101 75 -141 40z"/>
<path d="M6015 5406 c-33 -35 -94 -85 -136 -112 -112 -72 -117 -76 -79 -58 85
41 218 145 261 206 29 40 22 34 -46 -36z"/>
<path d="M5461 5444 c0 -11 3 -14 6 -6 3 7 2 16 -1 19 -3 4 -6 -2 -5 -13z"/>
<path d="M5471 5409 c-1 -18 30 -112 35 -107 2 2 -5 31 -16 63 -10 33 -19 53
-19 44z"/>
<path d="M7251 5394 c0 -11 3 -14 6 -6 3 7 2 16 -1 19 -3 4 -6 -2 -5 -13z"/>
<path d="M7257 5306 c-3 -35 -15 -90 -27 -122 -58 -167 -252 -352 -492 -470
-65 -32 -79 -36 -93 -24 -30 25 -128 211 -166 318 -21 59 -38 102 -38 95 -2
-25 63 -192 106 -275 54 -106 98 -168 118 -168 25 0 172 77 251 132 96 66 184
146 239 218 l44 57 116 -27 c102 -24 115 -25 115 -11 0 13 -24 22 -100 40 -55
13 -103 28 -106 33 -7 10 39 4 127 -18 65 -16 82 -17 75 -6 -3 5 -43 17 -89
26 -111 24 -111 24 -91 72 15 36 33 194 22 194 -3 0 -8 -29 -11 -64z"/>
<path d="M12190 5319 c-7 -11 -10 -23 -7 -25 2 -2 9 7 15 21 14 30 7 33 -8 4z"/>
<path d="M11842 5299 c-22 -22 -33 -64 -31 -113 1 -20 4 -11 9 24 14 92 61
117 165 85 64 -19 70 -12 9 9 -68 23 -129 21 -152 -5z"/>
<path d="M12496 5281 c9 -50 6 -179 -6 -240 -14 -74 -5 -77 11 -4 15 71 15
219 0 253 -10 23 -11 22 -5 -9z"/>
<path d="M7578 5261 c-14 -11 -38 -48 -54 -83 -57 -124 -30 -305 73 -498 38
-71 64 -112 135 -214 12 -18 183 107 289 213 85 85 113 121 143 183 58 116 60
254 6 303 -41 37 -146 10 -254 -64 -25 -17 -49 -31 -55 -31 -5 0 -25 21 -43
48 -98 143 -179 191 -240 143z m22 -25 c0 -2 -8 -10 -17 -17 -16 -13 -17 -12
-4 4 13 16 21 21 21 13z m115 -27 c19 -17 33 -35 30 -39 -3 -5 7 -17 22 -28
22 -16 23 -19 7 -18 -10 0 -34 12 -53 25 -45 32 -85 31 -119 -3 l-27 -27 0
-157 c0 -86 -1 -149 -3 -139 -2 9 -7 15 -12 12 -4 -3 -6 5 -2 17 3 13 1 19 -5
15 -7 -5 -9 1 -5 15 3 14 1 19 -6 14 -8 -5 -10 3 -7 26 4 26 3 29 -4 13 -7
-14 -9 -3 -5 40 9 113 15 140 40 182 41 70 77 79 140 37 24 -17 33 -20 24 -9
-8 10 -28 26 -45 37 -16 10 -25 18 -18 18 7 0 28 -14 48 -31z m-184 -90 c-5
-13 -10 -19 -10 -12 -1 15 10 45 15 40 3 -2 0 -15 -5 -28z m519 24 c-8 -3 -27
-12 -42 -20 -16 -7 -28 -11 -28 -9 0 9 54 35 70 35 13 -1 13 -1 0 -6z m-533
-135 c-2 -18 -4 -6 -4 27 0 33 2 48 4 33 2 -15 2 -42 0 -60z m670 -5 c-2 -16
-4 -3 -4 27 0 30 2 43 4 28 2 -16 2 -40 0 -55z m-287 63 c0 -2 -8 -10 -17 -17
-16 -13 -17 -12 -4 4 13 16 21 21 21 13z m193 -113 c-23 -2 -64 -2 -90 0 -26
2 -7 3 42 3 50 0 71 -1 48 -3z m87 -3 c0 -5 -8 -10 -17 -10 -15 0 -16 2 -3 10
19 12 20 12 20 0z m-243 -6 c-3 -3 -12 -4 -19 -1 -8 3 -5 6 6 6 11 1 17 -2 13
-5z m-67 -19 c-19 -7 -42 -13 -50 -13 -8 0 1 6 20 13 19 7 42 13 50 13 8 0 -1
-6 -20 -13z m-180 -80 c0 -2 -10 -9 -22 -15 -22 -11 -22 -10 -4 4 21 17 26 19
26 11z m-50 -29 c0 -2 -8 -10 -17 -17 -16 -13 -17 -12 -4 4 13 16 21 21 21 13z"/>
<path d="M12138 5233 c7 -3 16 -2 19 1 4 3 -2 6 -13 5 -11 0 -14 -3 -6 -6z"/>
<path d="M6421 5184 c0 -11 3 -14 6 -6 3 7 2 16 -1 19 -3 4 -6 -2 -5 -13z"/>
<path d="M5551 5184 c-2 -19 26 -47 40 -41 11 4 11 6 -2 6 -9 1 -21 11 -27 24
-6 12 -11 17 -11 11z"/>
<path d="M5670 5180 c-8 -5 -10 -10 -5 -10 6 0 17 5 25 10 8 5 11 10 5 10 -5
0 -17 -5 -25 -10z"/>
<path d="M6500 5173 c0 -48 119 -328 166 -388 15 -20 16 -19 89 19 41 22 75
44 75 49 0 5 -7 6 -16 3 -8 -3 -13 -2 -10 2 3 5 -45 59 -107 120 -80 80 -116
109 -126 103 -8 -5 -11 -17 -7 -32 7 -24 7 -24 -8 1 -7 14 -20 45 -27 70 -12
45 -29 75 -29 53z m129 -273 c11 -24 11 -24 -3 -6 -9 11 -16 24 -16 30 0 12 5
7 19 -24z m156 -60 c-3 -5 -12 -10 -18 -10 -7 0 -6 4 3 10 19 12 23 12 15 0z
m-69 -35 c-11 -8 -25 -15 -30 -15 -6 1 0 7 14 15 32 19 40 18 16 0z"/>
<path d="M11479 5134 c122 -197 57 -505 -169 -806 -22 -28 -47 -56 -55 -61
-39 -21 -290 166 -386 289 -73 93 -83 102 -38 36 23 -34 78 -97 123 -140 78
-74 241 -193 286 -207 28 -9 48 10 115 105 109 155 174 302 196 447 l12 81
116 32 c143 38 152 42 143 57 -8 12 -81 -2 -214 -42 -28 -8 -48 -10 -48 -4 0
5 6 11 13 13 6 2 60 17 120 32 59 16 107 32 107 36 0 13 -20 9 -125 -22 -55
-17 -105 -28 -111 -26 -6 2 -14 22 -17 43 -8 47 -58 153 -81 172 -10 8 -4 -7
13 -35z"/>
<path d="M11305 5154 c-37 -19 -80 -59 -107 -99 -12 -18 -3 -11 25 18 80 84
136 92 190 27 106 -125 55 -390 -126 -663 -36 -53 -56 -76 -66 -72 -43 16
-184 131 -260 210 -91 96 -141 176 -165 266 -8 30 -15 45 -15 33 -1 -36 36
-131 75 -191 52 -81 184 -207 288 -278 l87 -60 20 25 c91 116 180 290 211 412
37 148 8 294 -73 363 -36 29 -44 30 -84 9z"/>
<path d="M6431 5134 c0 -11 3 -14 6 -6 3 7 2 16 -1 19 -3 4 -6 -2 -5 -13z"/>
<path d="M8268 5060 c3 -83 1 -104 -21 -162 -39 -106 -85 -175 -187 -278 -105
-106 -297 -243 -334 -238 -32 5 -119 128 -191 273 -36 72 -65 126 -65 120 0
-5 22 -56 49 -111 53 -110 144 -255 184 -292 l25 -23 50 25 c143 72 355 266
423 386 19 33 39 67 44 75 9 13 30 12 174 -10 91 -15 169 -28 173 -31 4 -3 8
4 8 14 0 21 6 20 -227 58 -57 9 -103 21 -103 27 0 5 10 7 23 3 43 -12 300 -47
305 -42 7 8 -11 12 -163 36 -76 12 -144 24 -150 26 -6 3 -9 36 -7 88 2 45 -1
98 -6 117 -6 25 -8 8 -4 -61z"/>
<path d="M8753 5090 c-30 -12 -69 -75 -84 -133 -18 -75 -6 -188 30 -283 39
-101 112 -224 182 -307 29 -34 56 -66 61 -71 18 -22 202 131 290 243 72 89
133 211 143 280 9 64 -10 154 -40 189 -18 21 -31 26 -63 25 -48 -2 -119 -37
-190 -92 -28 -23 -56 -41 -61 -41 -5 0 -26 23 -46 50 -43 59 -107 114 -158
135 -20 8 -38 15 -39 14 -2 0 -13 -4 -25 -9z"/>
<path d="M10815 5056 c-23 -23 -45 -109 -31 -123 3 -4 6 6 6 21 0 35 25 82 49
96 42 22 104 5 192 -51 35 -23 56 -32 46 -21 -27 30 -174 102 -208 102 -18 0
-39 -9 -54 -24z"/>
<path d="M11865 5021 c8 -17 19 -33 25 -36 5 -3 1 10 -11 29 -25 43 -36 48
-14 7z"/>
<path d="M11163 5008 c-15 -20 -25 -38 -20 -38 3 0 12 11 21 25 17 26 16 35
-1 13z"/>
<path d="M9416 4995 c27 -89 20 -213 -17 -307 -52 -134 -207 -318 -367 -436
-74 -55 -86 -61 -105 -50 -20 10 -21 10 -8 -5 21 -26 36 -21 116 38 172 127
325 301 370 419 20 52 13 51 188 38 85 -7 88 -6 83 13 -3 11 -6 28 -6 38 0 15
-11 17 -77 18 -43 0 -94 3 -113 7 l-35 7 -1 85 c-1 56 -7 97 -18 120 -9 19
-14 26 -10 15z m243 -261 c14 -13 -20 -16 -114 -9 -60 4 -105 11 -105 17 0 10
209 2 219 -8z"/>
<path d="M10239 4981 c-24 -16 -69 -54 -99 -85 -30 -31 -59 -56 -65 -56 -5 0
-30 21 -55 46 -122 125 -217 148 -260 64 -80 -157 -21 -357 170 -580 32 -36
81 -86 109 -110 l52 -43 60 59 c122 120 226 279 263 403 32 109 14 248 -39
305 -33 35 -78 34 -136 -3z m-329 -56 c17 -9 30 -18 30 -21 0 -2 -13 2 -30 11
-40 21 -60 19 -95 -9 -29 -23 -30 -26 -30 -113 0 -48 4 -101 8 -118 5 -21 5
-25 -2 -15 -16 24 -34 145 -27 181 3 19 15 49 26 67 16 26 26 32 55 32 20 0
49 -7 65 -15z"/>
<path d="M10456 4975 c4 -11 13 -40 20 -64 29 -91 12 -237 -40 -355 -45 -100
-136 -228 -236 -330 -92 -93 -99 -97 -121 -85 -73 38 -244 221 -305 325 -32
54 -44 59 -14 5 61 -108 297 -361 336 -361 44 0 221 193 303 329 25 40 59 117
77 170 l32 96 114 12 c62 6 116 12 121 12 4 1 7 8 7 17 0 14 -8 16 -47 10
-122 -15 -193 -19 -193 -8 0 9 77 20 187 25 24 1 43 6 43 10 0 5 -51 5 -113 1
l-113 -6 -11 64 c-6 35 -20 84 -32 109 -12 24 -18 35 -15 24z"/>
<path d="M12471 4954 c0 -11 3 -14 6 -6 3 7 2 16 -1 19 -3 4 -6 -2 -5 -13z"/>
<path d="M11110 4946 c7 -7 14 -6 21 1 9 9 7 12 -9 10 -14 -1 -18 -5 -12 -11z"/>
<path d="M11965 4902 c33 -35 76 -72 95 -82 l35 -20 -30 23 c-16 12 -59 49
-95 82 l-65 59 60 -62z"/>
<path d="M12428 4835 c-3 -11 -9 -29 -13 -40 -3 -11 1 -7 10 8 9 16 15 33 12
40 -2 6 -6 3 -9 -8z"/>
<path d="M12130 4776 c0 -7 71 -49 75 -44 2 2 -14 14 -36 26 -21 12 -39 21
-39 18z"/>
<path d="M12274 4696 c11 -9 24 -16 30 -16 12 0 7 5 -24 19 -24 11 -24 11 -6
-3z"/>
<path d="M12355 4680 c-3 -5 -13 -7 -23 -4 -14 5 -15 4 -2 -5 20 -14 27 -14
34 4 6 17 0 20 -9 5z"/>
<path d="M8640 4625 c0 -5 5 -17 10 -25 5 -8 10 -10 10 -5 0 6 -5 17 -10 25
-5 8 -10 11 -10 5z"/>
<path d="M8670 4554 c0 -15 98 -176 117 -194 15 -13 16 -13 6 0 -6 8 -37 58
-67 110 -31 51 -56 89 -56 84z"/>
<path d="M8850 4276 c0 -2 8 -10 18 -17 15 -13 16 -12 3 4 -13 16 -21 21 -21
13z"/>
</g>
</svg>
